<mxfile host="app.diagrams.net" modified="2021-06-26T19:15:41.488Z" agent="5.0 (X11)" etag="z6FAxEXxh5Mhtjubh9cb" version="14.8.1" type="github">
  <diagram id="R2lEEEUBdFMjLlhIrx00" name="Page-1">
    <mxGraphModel dx="782" dy="724" grid="1" gridSize="10" guides="1" tooltips="1" connect="1" arrows="1" fold="1" page="1" pageScale="1" pageWidth="850" pageHeight="1100" math="0" shadow="0" extFonts="Permanent Marker^https://fonts.googleapis.com/css?family=Permanent+Marker">
      <root>
        <mxCell id="0" />
        <mxCell id="1" parent="0" />
        <mxCell id="dtSJZiSJ7NeYfZaBEJuU-1" value="COURSE" style="rounded=0;whiteSpace=wrap;html=1;" vertex="1" parent="1">
          <mxGeometry x="416.5" y="390" width="120" height="60" as="geometry" />
        </mxCell>
        <mxCell id="dtSJZiSJ7NeYfZaBEJuU-2" value="&lt;div&gt;LAB&lt;/div&gt;&lt;div&gt;SECTION&lt;br&gt;&lt;/div&gt;" style="rounded=0;whiteSpace=wrap;html=1;" vertex="1" parent="1">
          <mxGeometry x="520" y="180" width="120" height="60" as="geometry" />
        </mxCell>
        <mxCell id="dtSJZiSJ7NeYfZaBEJuU-3" value="&lt;div&gt;TUTORIAL&lt;/div&gt;&lt;div&gt;SECTION&lt;br&gt;&lt;/div&gt;" style="rounded=0;whiteSpace=wrap;html=1;" vertex="1" parent="1">
          <mxGeometry x="321" y="180" width="120" height="60" as="geometry" />
        </mxCell>
        <mxCell id="dtSJZiSJ7NeYfZaBEJuU-4" value="" style="rhombus;whiteSpace=wrap;html=1;" vertex="1" parent="1">
          <mxGeometry x="345.5" y="286" width="71" height="70" as="geometry" />
        </mxCell>
        <mxCell id="dtSJZiSJ7NeYfZaBEJuU-5" value="" style="rhombus;whiteSpace=wrap;html=1;" vertex="1" parent="1">
          <mxGeometry x="544.5" y="286" width="71" height="70" as="geometry" />
        </mxCell>
        <mxCell id="dtSJZiSJ7NeYfZaBEJuU-6" value="" style="ellipse;whiteSpace=wrap;html=1;" vertex="1" parent="1">
          <mxGeometry x="610" y="356" width="80" height="40" as="geometry" />
        </mxCell>
        <mxCell id="dtSJZiSJ7NeYfZaBEJuU-7" value="" style="ellipse;whiteSpace=wrap;html=1;" vertex="1" parent="1">
          <mxGeometry x="640" y="400" width="80" height="40" as="geometry" />
        </mxCell>
        <mxCell id="dtSJZiSJ7NeYfZaBEJuU-8" value="" style="ellipse;whiteSpace=wrap;html=1;" vertex="1" parent="1">
          <mxGeometry x="630" y="450" width="80" height="40" as="geometry" />
        </mxCell>
        <mxCell id="dtSJZiSJ7NeYfZaBEJuU-9" value="" style="ellipse;whiteSpace=wrap;html=1;" vertex="1" parent="1">
          <mxGeometry x="615.5" y="496" width="80" height="40" as="geometry" />
        </mxCell>
        <mxCell id="dtSJZiSJ7NeYfZaBEJuU-10" value="" style="ellipse;whiteSpace=wrap;html=1;" vertex="1" parent="1">
          <mxGeometry x="560" y="536" width="80" height="40" as="geometry" />
        </mxCell>
      </root>
    </mxGraphModel>
  </diagram>
</mxfile>
